# xmcd CD database file
#
# Track frame offsets:
#	150
#	68178
#	101725
#	146939
#	235218
#	265901
#
# Disc length: 3934 seconds
#
# Revision: 0
# Processed by: cddbd v1.5.2PL0 Copyright (c) Steve Scherf et al.
# Submitted via: CDex 1.77
#
DISCID=590f5c06
DTITLE=Keith Jarrett - Somewhere
DYEAR=2013
DGENRE=Jazz
TTITLE0=Deep Space - Solar
TTITLE1=Stars Fell On Alabama 
TTITLE2=Between The Devil And The Deep Blue Sea
TTITLE3=Somewhere
TTITLE4=Everywhere Tonight
TTITLE5=I Thought About You
EXTD=YEAR: 2013
EXTT0=
EXTT1=
EXTT2=
EXTT3=
EXTT4=
EXTT5=
PLAYORDER=
